<?xml version="1.0" encoding="UTF-8" standalone="no"?>
<svg
   width="750"
   height="625"
   viewBox="0 0 750 625"
   version="1.1"
   sodipodi:docname="bpmaps.svg"
   id="svg685"
   inkscape:version="1.3.2 (091e20e, 2023-11-25, custom)"
   xml:space="preserve"
   xmlns:inkscape="http://www.inkscape.org/namespaces/inkscape"
   xmlns:sodipodi="http://sodipodi.sourceforge.net/DTD/sodipodi-0.dtd"
   xmlns:xlink="http://www.w3.org/1999/xlink"
   xmlns="http://www.w3.org/2000/svg"
   xmlns:svg="http://www.w3.org/2000/svg"><defs
     id="defs687"><rect
   x="584.63725"
   y="107.03203"
   width="128.74136"
   height="46.952732"
   id="rect2" /><rect
   x="567.9766"
   y="108.04177"
   width="147.92635"
   height="47.4576"
   id="rect1" /><rect
   x="560.90845"
   y="239.30748"
   width="158.52858"
   height="63.108512"
   id="rect388" /><rect
   x="567.97661"
   y="96.934674"
   width="97.94441"
   height="28.777481"
   id="rect387" /><rect
   x="568.48147"
   y="68.662061"
   width="149.94582"
   height="31.301822"
   id="rect386" /><linearGradient
   id="linearGradient385"
   inkscape:collect="always"><stop
     style="stop-color:#cccccc;stop-opacity:1"
     offset="0"
     id="stop385" /><stop
     style="stop-color:#b3b3b3;stop-opacity:0;"
     offset="1"
     id="stop386" /></linearGradient><linearGradient
   id="linearGradient369"
   inkscape:collect="always"><stop
     style="stop-color:#999999;stop-opacity:1;"
     offset="0"
     id="stop369" /><stop
     style="stop-color:#999999;stop-opacity:0;"
     offset="1"
     id="stop370" /></linearGradient><inkscape:perspective
   sodipodi:type="inkscape:persp3d"
   inkscape:vp_x="0 : 312.5 : 1"
   inkscape:vp_y="0 : 1000 : 0"
   inkscape:vp_z="750 : 312.5 : 1"
   inkscape:persp3d-origin="375 : 208.33333 : 1"
   id="perspective3" /><linearGradient
   inkscape:collect="always"
   xlink:href="#linearGradient369"
   id="linearGradient370"
   x1="482.65811"
   y1="711.84937"
   x2="484.80011"
   y2="136.37234"
   gradientUnits="userSpaceOnUse"
   gradientTransform="matrix(1,0,0,1.1277419,0,-46.792687)" />
	
<linearGradient
   inkscape:collect="always"
   xlink:href="#linearGradient385"
   id="linearGradient386"
   x1="82.293503"
   y1="510.42163"
   x2="256.47299"
   y2="308.97928"
   gradientUnits="userSpaceOnUse" /><rect
   x="560.90845"
   y="239.30748"
   width="158.52858"
   height="63.108513"
   id="rect388-8" /><rect
   x="560.90845"
   y="239.30748"
   width="158.52858"
   height="63.108513"
   id="rect388-8-8" /><rect
   x="560.90845"
   y="239.30748"
   width="158.52858"
   height="63.108513"
   id="rect388-8-3" /></defs><sodipodi:namedview
     pagecolor="#b1b1b1"
     bordercolor="#2a2a2a"
     borderopacity="1"
     inkscape:pageshadow="0"
     inkscape:pageopacity="0"
     inkscape:pagecheckerboard="true"
     inkscape:showpageshadow="false"
     inkscape:document-units="px"
     showgrid="false"
     units="px"
     width="750px"
     height="1140px"
     borderlayer="true"
     inkscape:zoom="1.9807154"
     inkscape:cx="706.05802"
     inkscape:cy="306.70736"
     inkscape:current-layer="bg"
     id="namedview670"
     inkscape:blackoutopacity="0.0"
     inkscape:deskcolor="#494949"
     inkscape:window-maximized="0"
     inkscape:window-width="2668"
     inkscape:window-height="1513"
     inkscape:window-x="89"
     inkscape:window-y="69"><inkscape:page
       x="0"
       y="0"
       width="750"
       height="625"
       id="page1792"
       inkscape:label="About Screen"
       margin="0"
       bleed="0" /><inkscape:page
       x="800.33966"
       y="-1.2340232"
       width="960"
       height="360"
       id="page1794"
       inkscape:label="Website Download Splash" /><inkscape:page
       x="931.97632"
       y="401.65384"
       width="700"
       height="220"
       id="page4330"
       inkscape:label="Welcome Screen" /></sodipodi:namedview><g
     inkscape:label="Background"
     inkscape:groupmode="layer"
     id="bg"
     sodipodi:insensitive="true"><rect
       style="fill:#ffffff;stroke-width:1.109;stop-color:#000000"
       id="rect194"
       width="750"
       height="625"
       x="0"
       y="0" /><path
       id="rect194-3"
       style="fill:#ffffff;stroke-width:1.109;stop-color:#000000"
       d="M 800.33966,-1.2340232 V 358.76598 h 54.57812 v -71.65039 h 850.84372 v 71.65039 h 54.5781 V -1.2340232 Z" /><rect
       style="fill:#ffffff;stroke-width:1.109;stop-color:#000000"
       id="rect1266"
       width="700"
       height="220"
       x="931.97632"
       y="401.65381" /><text
       xml:space="preserve"
       style="font-size:21.3333px;line-height:1.25;font-family:Aclonica;-inkscape-font-specification:Aclonica;text-align:start;letter-spacing:0px;word-spacing:0px;fill:#ffffff;stroke-width:0.264583"
       x="1006.1695"
       y="-39.8265"
       id="text7093-6-5-5"><tspan
         sodipodi:role="line"
         id="tspan7091-7-3-6"
         style="font-family:'Liberation Sans';-inkscape-font-specification:'Liberation Sans';text-align:start"
         x="1006.1695"
         y="-39.8265">Optional formats to consider when making your graphic</tspan></text></g><g
     id="layer1"
     inkscape:groupmode="layer"
     inkscape:label="Layer 1"><rect
       style="fill:url(#linearGradient370);fill-opacity:1;stroke:none;stroke-width:2.1239;stroke-miterlimit:0"
       id="rect368"
       width="105.67072"
       height="624.02838"
       x="433.39273"
       y="0.71399254"
       rx="0" /><g
       style="fill:#000000"
       id="g370"
       transform="matrix(0.26996147,0,0,0.26996147,456.45194,61.661984)"><path
         d="M 39.576,23.011 28.074,11.499 39.576,0 51.076,11.507 Z M 53.62,37.049 65.12,25.546 53.611,14.038 42.112,25.537 Z M 67.642,51.072 79.141,39.573 67.634,28.066 56.13,39.567 Z M 81.667,65.103 93.17,53.604 81.667,42.1 70.168,53.611 Z M 37.057,25.537 25.538,14.038 14.038,25.537 25.545,37.049 Z M 51.075,39.573 39.567,28.066 28.061,39.573 39.568,51.08 Z M 53.604,42.1 42.092,53.619 53.603,65.126 65.104,53.619 Z M 11.508,28.074 0.008,39.581 11.527,51.093 23.035,39.581 Z m 2.53,25.537 11.507,11.507 11.52,-11.507 -11.511,-11.52 z M 51.083,67.633 39.576,56.113 28.069,67.633 39.576,79.14 Z M 65.105,81.643 53.604,70.144 42.092,81.651 53.597,93.163 Z m 67.395,34.29 11.497,-11.501 -11.497,-11.506 -11.501,11.506 z m 14.03,14.026 11.497,-11.497 -11.514,-11.518 -11.501,11.501 z m 14.033,14.03 11.502,-11.498 -11.502,-11.493 -11.505,11.501 z m 14.01,-8.985 -11.501,11.51 11.521,11.513 11.501,-11.497 z m -68.89,-26.493 -21.08,21.083 c -3.085,3.082 -8.137,3.094 -11.231,0 l -7.011,-7.041 -16.847,16.852 -2.809,-2.806 16.855,-16.843 -7.035,-7.029 c -3.094,-3.098 -3.085,-8.159 0,-11.24 l 21.067,-21.073 -5.61,-5.631 -4.348,4.358 -11.503,-11.5 11.503,-11.519 11.499,11.511 -4.35,4.346 5.623,5.624 21.077,-21.071 c 3.098,-3.102 8.147,-3.102 11.236,0 l 16.859,16.845 c 3.09,3.094 3.09,8.143 0,11.233 l -21.091,21.079 5.635,5.627 4.355,-4.372 11.506,11.501 -11.506,11.529 -11.501,-11.505 4.348,-4.364 z m 6.479,-46.931 c -2.77,-2.779 -7.338,-2.779 -10.106,0 l -40.443,40.442 c -2.779,2.777 -2.779,7.346 0,10.123 z m 8.828,70.911 11.518,11.498 11.505,-11.498 -11.505,-11.518 z m 37.037,14.023 -11.497,-11.51 -11.518,11.51 11.518,11.513 z m -8.985,14.042 11.521,11.518 11.502,-11.518 -11.502,-11.506 z m -44.603,-39.558 -11.513,11.514 11.513,11.509 11.502,-11.521 z m 14.015,14.006 -11.498,11.525 11.498,11.497 11.517,-11.497 z m 14.029,14.03 -11.501,11.521 11.501,11.501 11.514,-11.501 z m 2.538,25.543 11.518,11.525 11.497,-11.525 -11.497,-11.497 z M 41.964,144.129 c -4.412,-4.408 -5.678,-10.563 -4.398,-16.262 l -5.354,1.803 c -0.613,6.44 1.256,13.076 6.193,18.014 4.938,4.938 11.574,6.809 18.032,6.212 l 1.783,-5.383 c -5.677,1.302 -11.838,0.032 -16.256,-4.384 z m -15.138,-12.676 -4.907,1.644 c 0.322,7.879 3.4,15.685 9.387,21.704 6,5.995 13.804,9.053 21.684,9.373 l 1.633,-4.905 c -7.153,0.061 -14.309,-2.592 -19.767,-8.026 -5.431,-5.474 -8.092,-12.629 -8.03,-19.79 z m -9.76,3.255 -4.849,1.623 c 0.998,9.329 4.885,18.397 12.01,25.531 7.137,7.137 16.202,11.016 25.536,12.01 l 1.627,-4.861 c -8.618,-0.673 -17.044,-4.115 -23.614,-10.691 -6.57,-6.565 -10.023,-15.005 -10.71,-23.612 z"
         id="path1" /></g><g
       style="fill:#000000"
       id="g371"
       transform="matrix(0.15070781,0,0,0.15070781,455.68596,348.57475)"><g
         id="g4">
	<path
   d="m 172.631,211.084 c -17.389,-3.674 -34.588,-0.419 -48.851,7.808 -9.732,-13.297 -24.135,-23.235 -41.523,-26.908 -37.423,-7.912 -74.2,16.02 -82.111,53.458 -0.031,0.144 -0.06,0.289 -0.09,0.433 -0.259,1.244 0.397,2.503 1.563,3.015 1.165,0.514 2.528,0.146 3.274,-0.885 14.909,-20.499 41.285,-25.346 69.611,-19.359 17.388,3.674 31.8,13.616 41.524,26.908 14.263,-8.221 31.472,-11.48 48.859,-7.809 28.326,5.982 50.472,21.086 55.826,45.858 0.269,1.245 1.363,2.13 2.638,2.135 1.274,0.006 2.368,-0.88 2.646,-2.119 0.031,-0.145 0.06,-0.283 0.09,-0.423 7.914,-37.443 -16.033,-74.206 -53.456,-82.112 z"
   id="path1-7" />
	<path
   d="m 269.374,142.83 c -13.557,-6.32 -28.276,-6.917 -41.544,-2.886 -5.453,-12.75 -15.368,-23.639 -28.924,-29.959 -29.191,-13.605 -63.897,-0.97 -77.504,28.222 0,0 -0.009,0.009 -0.009,0.02 -0.469,1 -0.169,2.195 0.717,2.861 0.875,0.667 2.109,0.632 2.945,-0.085 16.103,-13.755 38.538,-12.675 60.523,-2.429 13.557,6.321 23.479,17.209 28.924,29.96 13.258,-4.033 27.988,-3.435 41.545,2.881 22.424,10.455 37.841,27.391 37.024,49.188 -0.029,0.971 0.616,1.831 1.553,2.075 0.945,0.238 1.921,-0.214 2.349,-1.08 0.209,-0.423 0.418,-0.847 0.616,-1.273 13.607,-29.193 0.967,-63.894 -28.215,-77.495 z"
   id="path2" />
	<path
   d="m 94.51,37.677 c 0.606,0.254 1.313,0.05 1.702,-0.492 7.256,-10.366 20.402,-13.103 34.655,-10.466 8.789,1.622 16.164,6.439 21.22,13.003 7.066,-4.324 15.686,-6.186 24.484,-4.559 14.253,2.633 25.539,9.888 28.625,22.165 0.159,0.643 0.747,1.086 1.403,1.06 0.657,-0.019 1.215,-0.497 1.334,-1.149 3.503,-18.931 -9.008,-37.12 -27.939,-40.618 -8.798,-1.623 -17.407,0.233 -24.475,4.558 C 150.463,14.615 143.078,9.798 134.29,8.176 115.349,4.677 97.165,17.188 93.661,36.124 c -0.117,0.652 0.231,1.3 0.849,1.553 z"
   id="path3" />
	<path
   d="m 258.933,35.328 c 5.025,4.519 7.872,10.541 8.54,16.771 6.259,0.005 12.559,2.215 17.596,6.739 8.48,7.628 12.909,17.223 9.296,26.728 -0.139,0.354 0,0.752 0.309,0.956 0.319,0.204 0.737,0.159 1.006,-0.11 0.298,-0.302 0.597,-0.616 0.886,-0.939 9.733,-10.825 8.858,-27.496 -1.971,-37.24 -5.027,-4.523 -11.316,-6.728 -17.577,-6.733 -0.666,-6.225 -3.533,-12.251 -8.55,-16.776 -10.828,-9.744 -27.5,-8.863 -37.244,1.961 -0.338,0.383 -0.367,0.936 -0.069,1.343 0.288,0.403 0.825,0.547 1.284,0.349 8.777,-3.813 18.343,-0.379 26.494,6.951 z"
   id="path4" />
</g></g><g
       style="fill:#000000"
       id="g372"
       transform="matrix(1.7687276,0,0,1.7687276,450.2432,500.29762)"><g
         id="g7">
	<g
   id="g6">
		<path
   d="m 13.263,16.596 -0.719,-0.562 c -0.102,0.163 -0.163,0.354 -0.163,0.559 0,0.289 0.117,0.551 0.306,0.744 z"
   id="path1-2" />
		<path
   d="m 12.882,17.49 c 0.164,0.104 0.355,0.165 0.563,0.165 0.299,0 0.567,-0.125 0.761,-0.323 L 13.461,16.75 Z"
   id="path2-8" />
		<path
   d="m 13.979,15.678 c -0.157,-0.092 -0.339,-0.149 -0.534,-0.149 -0.291,0 -0.555,0.118 -0.746,0.308 l 0.719,0.562 z"
   id="path3-1" />
		<path
   d="m 14.354,17.131 c 0.095,-0.158 0.152,-0.34 0.152,-0.539 0,-0.299 -0.126,-0.57 -0.327,-0.764 l -0.565,0.725 z"
   id="path4-9" />
		<path
   d="m 29.713,24.617 c -0.02,-0.472 -0.201,-5.134 -0.123,-5.668 0.083,-0.562 0.188,-2.709 -0.042,-3.73 -0.23,-1.021 -0.416,-2.594 -0.271,-2.625 0.145,-0.031 1.125,0.688 1.354,0.938 0.151,0.166 -0.039,1.163 -0.188,1.817 -0.096,0.115 -0.156,0.261 -0.156,0.423 0,0.054 0.008,0.105 0.021,0.156 v 0 c 0.069,0.287 0.326,0.5 0.635,0.5 0.31,0 0.565,-0.212 0.637,-0.5 h 0.021 c 0,0 0.635,-2.313 0.303,-2.98 -0.334,-0.667 -3.396,-2.98 -3.752,-2.98 -0.354,0 -1.293,0.063 -1.541,0.125 -0.178,0.044 -1.756,1.354 -2.668,2.122 v -2.8 h -6.241 l 0.021,7.315 H 16.638 V 16.157 L 15.305,16.154 V 15.487 H 14.93 v -0.958 h 0.333 v -0.73 H 14.93 V 13.112 H 11.867 V 13.8 h -0.334 v 0.729 h 0.334 v 0.958 h -0.37 v 0.667 l -1.421,0.003 V 16.73 H 9.046 L 9.028,9.418 H 1.933 l 0.016,7.921 h 0.01 v 7.277 H 0 v 2 h 32 v -2 H 29.713 Z M 18.598,13.125 h 1.219 v 0.615 h -1.219 z m 0.007,1.575 v -0.614 h 1.219 v 0.615 z m 1.215,0.343 v 0.615 h -1.219 v -0.615 z m -6.376,0.236 c 0.724,0 1.313,0.589 1.313,1.312 0,0.725 -0.589,1.313 -1.313,1.313 -0.725,0 -1.313,-0.589 -1.313,-1.313 0,-0.723 0.589,-1.312 1.313,-1.312 z M 7.46,10.402 h 0.667 v 5.379 H 7.46 Z M 19.088,24.825 H 6.876 v -1.792 h 12.212 z m 3.269,-4.647 H 3.568 v -0.707 h 18.79 v 0.707 z M 20.229,14.715 V 14.1 h 1.22 v 0.615 z m 1.214,0.342 v 0.615 H 20.224 V 15.057 Z M 21.439,13.754 H 20.22 v -0.615 h 1.219 z M 22.24,13.75 h -0.43 v -0.615 h 0.729 c -0.184,0.116 -0.307,0.32 -0.307,0.553 0.002,0.02 0.006,0.04 0.008,0.062 z m 0.793,1.917 h -1.219 v -0.615 h 1.219 z m 0.004,-0.957 h -1.219 v -0.615 h 0.562 c 0.12,0.15 0.304,0.249 0.511,0.249 0.051,0 0.101,-0.007 0.146,-0.018 z m 0.041,-1.992 h -4.471 v -2.344 h 4.471 z m 3.031,3.438 c -0.219,0.562 -1.459,2.417 -1.375,3.271 0.063,0.664 0.078,4.305 0.1,4.623 -0.354,0 -0.538,0.322 -0.555,0.565 l -0.348,0.021 0.004,-10.781 c 0.69,-0.477 1.978,-1.325 2.069,-1.262 0.137,0.095 0.323,3.001 0.105,3.563 z m 1.909,7.877 c -0.26,0 -0.47,0.21 -0.47,0.469 0,0.041 0.007,0.078 0.017,0.115 H 26.61 c -0.012,-0.591 -0.082,-4.238 -0.082,-4.812 0,-0.625 1.396,-2.084 1.396,-2.084 0,0 -0.104,2.041 -0.104,2.416 0,0.299 0.146,2.857 0.205,3.896 z"
   id="path5" />
		<path
   d="m 25.174,8.04 c 0.016,-10e-4 0.086,-0.016 0.198,-0.042 0.015,0.148 0.044,0.298 0.096,0.445 0.337,0.954 1.37,1.462 2.304,1.133 0.932,-0.329 1.416,-1.373 1.08,-2.327 -0.009,-0.022 -0.019,-0.043 -0.026,-0.065 0.116,-0.028 0.188,-0.045 0.188,-0.045 0,0 -0.062,-0.654 -0.505,-1.164 C 27.956,5.761 27.274,5.74 26.745,5.946 26.585,6.009 26.4,6.108 26.24,6.262 26.068,6.364 25.918,6.492 25.793,6.641 25.941,6.254 26.247,5.961 26.684,5.792 27.143,5.616 27.712,5.597 28.227,5.718 27.93,5.501 27.52,5.356 26.957,5.388 c -1.883,0.107 -1.712,2.129 -1.712,2.129 0,0 -0.126,0.013 -0.226,0.048 -0.099,0.035 -0.193,0.038 -0.153,0.193 0.009,0.026 -0.003,-0.001 0.041,0.178 0.042,0.131 0.141,0.117 0.267,0.104 z m 3.324,-0.778 c 0.014,0.032 0.027,0.064 0.04,0.097 C 28.812,8.141 28.42,8.995 27.659,9.263 26.9,9.531 26.056,9.114 25.781,8.332 25.732,8.197 25.707,8.059 25.698,7.922 c 0.74,-0.17 2.07,-0.486 2.8,-0.66 z"
   id="path6" />
	</g>
</g></g><path
       d="m 492.71048,210.66047 c -0.3171,0 -1.37936,0.009 -1.67874,0.028 l -6.05275,0.15854 a 0.17067101,0.17067101 0 0 1 -0.15762,-0.0839 l -12.085,-14.69263 a 0.83936558,0.83936558 0 0 0 -0.62113,-0.33202 h -2.50783 l 6.80818,15.01532 a 0.21916768,0.21916768 0 0 1 -0.21077,0.31243 l -11.34916,0.16788 a 0.75169851,0.75169851 0 0 1 -0.61553,-0.28912 l -3.45073,-4.19683 c -0.27979,-0.36372 -0.80392,-0.55957 -1.25998,-0.55957 h -1.75894 c -0.1203,0 -0.10258,0.11284 -0.0699,0.22662 l 1.85033,6.66084 a 1.5201843,1.5201843 0 0 1 0,1.10982 l -1.8522,6.64032 c -0.055,0.18186 -0.0485,0.27979 0.16508,0.27979 h 1.67127 c 0.75916,0 0.86268,-0.0989 1.25065,-0.58756 l 3.51601,-4.26211 a 0.76382267,0.76382267 0 0 1 0.61554,-0.28912 l 11.25496,0.25181 a 0.25180967,0.25180967 0 0 1 0.22663,0.34881 l -6.7914,14.9836 h 2.48452 a 0.83936558,0.83936558 0 0 0 0.62019,-0.33108 l 12.11018,-14.68423 c 0.0364,-0.056 0.18653,-0.0839 0.25088,-0.0839 l 5.9595,0.15855 c 0.30777,0.0187 1.3607,0.028 1.67873,0.028 4.12874,0 6.7401,-1.13501 6.7401,-2.99374 0,-1.85873 -2.60016,-2.98441 -6.74103,-2.98441 z"
       style="fill:none;stroke:#000000;stroke-width:2;stroke-linecap:round;stroke-linejoin:round;stroke-dasharray:none"
       id="path1-24" /><path
       d="m 208.00565,182.52846 c -94.09206,0 -170.374326,76.28226 -170.374326,170.37432 l 0.0054,0.30099 -0.0054,0.30101 c 0,93.76266 75.856326,169.77233 169.437266,169.77233 l 0.36347,-0.0114 0.57359,0.0114 c 94.09206,0 170.37432,-76.28227 170.37432,-170.37433 0,-94.09206 -76.28226,-170.37432 -170.37432,-170.37432 m 159.01604,170.37432 c 0,13.59587 -1.71511,26.78853 -4.91815,39.37919 -1.48225,-1.02224 -5.40087,3.20304 -6.36631,-2.39659 -1.20966,-6.95128 -9.04689,-11.77855 -13.26649,-8.45625 -4.2196,3.32231 -16.27643,12.98252 -16.87273,19.02514 -0.60767,6.03692 -5.73594,13.28351 -8.13821,8.16092 -2.41932,-5.13395 -9.6432,-21.14345 -9.34787,-25.36874 0.29531,-4.22529 -3.32799,1.51066 -8.73454,-6.94559 -5.42926,-8.45625 -14.77145,-1.21534 -22.30767,-5.44062 -7.53622,-4.23096 -15.97543,-9.9669 -20.20071,-11.77286 -4.20825,-1.81733 7.53622,16.90681 9.04687,14.49316 1.51633,-2.41363 7.53622,1.81166 9.34787,1.81166 1.81165,0 6.62756,4.22529 3.61761,8.15525 -3.00994,3.92997 -29.83253,20.25182 -32.54717,16.00382 -2.72598,-4.24799 -18.68438,-37.14728 -21.40469,-35.13118 -2.71464,2.0161 16.88409,36.33517 20.20071,38.4478 3.30526,2.11832 13.2608,0.30668 18.07671,-1.80596 4.82728,-2.11265 -9.94418,23.55709 -16.26507,26.57839 -6.32655,3.01563 -11.44915,12.38054 -8.74587,16.60582 2.71463,4.22529 3.01562,20.23479 -2.70328,22.35311 -5.73593,2.10696 -7.84289,5.42926 -6.03693,9.35923 1.80029,3.91861 -4.21392,10.55753 -6.92855,14.78849 -2.72031,4.22529 -13.2608,12.98252 -14.16946,15.40185 -0.89731,2.41931 -13.85712,1.81164 -18.99106,1.81164 -5.11692,0 -1.20398,-6.34361 -1.81165,-11.77287 -0.59063,-5.44062 -5.11123,-10.57456 -5.11123,-13.2892 0,-2.7203 -1.51633,-9.06391 -3.61762,-12.07953 -2.10696,-3.02699 -2.7203,-8.76293 -0.60766,-12.07954 2.11831,-3.32799 3.61761,-12.98253 -0.59064,-17.21349 -4.22528,-4.22527 -9.05256,-11.47755 -5.73025,-17.21348 3.31662,-5.73594 -3.61762,-5.12827 -9.34219,-7.85425 -5.73026,-2.72032 -17.48609,0.90865 -23.51166,1.81731 -6.03126,0.90299 -12.05114,-1.51064 -13.86279,-4.53763 -1.80598,-3.01564 -5.72458,-10.56321 -9.73974,-12.38054 -4.0038,-1.80597 -1.70941,-9.66022 0.69854,-12.67585 2.41932,-3.01562 -2.40795,-8.75723 0,-11.18223 2.41932,-2.41364 3.91862,-11.1652 8.7402,-13.07907 4.82728,-1.90819 3.91861,-3.22007 4.06628,-7.75204 0.15333,-4.53195 5.42358,-4.53195 6.32088,-6.94558 0.90866,-2.41933 3.61761,-3.6233 9.05823,-3.6233 5.42358,0 14.60676,-3.17464 18.9797,-4.23097 4.37295,-1.05631 11.90917,-2.56696 11.3015,1.664 -0.60199,4.22528 -0.44866,9.05255 2.40796,9.05255 2.86796,0 6.78657,1.66399 11.30718,4.48085 4.52059,2.81118 4.66825,0.51112 5.27592,-2.66352 0.60767,-3.17464 6.92855,-1.96499 13.47093,1.05632 6.54237,3.02131 15.46431,0.90298 18.31524,0.60767 2.86797,-0.31235 4.07762,-8.91058 3.3223,-11.77854 -0.76101,-2.86798 -5.27592,1.3573 -8.13822,-0.45433 -2.86228,-1.80598 -6.78657,0.45433 -9.64319,-2.11834 -2.86795,-2.56128 -3.32229,-8.60389 0,-8.75154 3.31095,-0.15334 4.97494,-1.20967 6.92856,-3.46996 1.96498,-2.26598 9.34787,-3.6233 12.21016,-1.363 2.85661,2.26597 7.08757,3.77663 9.63751,1.20966 2.56129,-2.5613 -5.11123,-7.54191 -6.7809,-8.9049 -1.65831,-1.35732 -0.301,-5.73594 -1.95362,-5.73594 -1.66399,0 -3.02131,0.74965 -2.11264,2.86797 0.90298,2.11264 -4.8216,5.8836 -5.73593,3.77663 -0.89732,-2.11832 -2.40229,-6.19027 -4.66258,-6.19027 -2.25463,0 -5.27026,10.26789 -5.42359,11.92621 -0.15334,1.66399 -4.07195,4.37862 -7.22955,4.37862 -3.1576,0 -3.1576,3.62897 -1.50498,5.29295 1.65831,1.65832 0.44865,8.30292 -2.56128,8.68342 -3.01563,0.38618 -4.07196,-0.68149 -4.5206,-3.25416 -0.44865,-2.56128 -3.46428,-2.26029 -3.61762,-7.54757 -0.15334,-5.28728 -3.46996,-7.84858 -5.57692,-10.26789 -2.10696,-2.41931 -7.53622,-9.51257 -9.64319,-6.33793 -2.10695,3.17464 7.53623,9.96691 10.09184,11.77287 2.57266,1.81164 2.11832,5.73593 0.761,6.64459 -1.35731,0.90867 -3.91861,8.3086 -5.42358,8.9049 -1.51633,0.602 -2.95314,-2.24893 -2.95314,-2.24893 -2.26031,-0.90299 3.15759,-3.6233 4.06625,-4.98061 0.89732,-1.35733 -9.48984,-10.86988 -11.36396,-13.59019 -1.87411,-2.72031 -9.88172,2.26029 -13.49365,0.45432 -3.61761,-1.80596 -9.04687,6.79225 -9.48984,11.77286 -0.46001,4.9863 -6.33794,6.33794 -11.76152,6.33794 -5.41791,0 -9.04119,-4.07195 -7.22387,-8.14958 1.80596,-4.07763 -0.90866,-10.86988 2.2603,-11.32421 3.16329,-0.44865 12.19312,0 14.00477,-4.98061 1.80596,-4.98061 -8.59255,-9.51257 -4.51492,-10.41555 4.06059,-0.90866 10.39851,-7.2409 14.91911,-10.86988 4.50924,-3.6233 4.96357,-8.14958 9.02985,-8.46761 4.07762,-0.31235 -0.89731,-7.84289 2.72031,-10.1032 3.62328,-2.26597 4.52059,8.15526 7.23522,8.15526 2.71463,0 8.12685,-0.90866 12.65313,1.35731 4.52628,2.26598 5.87791,-2.26597 7.68957,-8.16092 1.80596,-5.88361 6.32656,-9.05824 15.36209,-13.58452 9.04119,-4.53196 -10.38716,1.35731 -14.01046,-3.17464 -3.61762,-4.53197 1.35732,-14.49885 3.6233,-21.53532 2.2603,-7.04213 -7.23524,7.03647 -12.21017,14.28873 -4.98061,7.24659 1.35733,10.41555 0.89732,15.39616 -0.44867,4.98629 -8.57552,10.86988 -8.57552,10.86988 -3.61761,0.45433 -3.16896,-6.79226 -4.97492,-9.96121 -1.81165,-3.16897 -4.98061,-1.81165 -9.95555,1.81164 -4.97493,3.6233 -5.42358,-8.6039 -6.77521,-13.59019 -1.34595,-4.97494 8.13821,-11.32422 12.59634,-14.70899 4.45244,-3.39613 11.80693,-19.7123 19.95083,-32.38815 8.1439,-12.68153 19.89405,-6.34361 23.05733,-1.35732 3.17464,4.97494 11.29581,1.80597 18.99106,10.86989 7.68956,9.05823 -1.81165,13.13018 -10.38716,9.4501 -8.6039,-3.6801 1.80029,9.12069 6.76386,12.74399 4.97493,3.61762 7.68956,-8.15524 9.50121,-10.86988 1.80597,-2.7203 8.58118,-1.35732 13.55044,-8.60958 4.98061,-7.24659 16.27643,-5.8836 22.72794,-5.08851 6.45718,0.80076 4.84998,-3.96972 0.78371,-7.8713 -3.00994,-2.885 3.14626,-0.35779 10.39283,3.18032 46.7564,27.67447 78.128,78.61071 78.128,136.89576 M 140.09445,298.7919 c -1.49931,-1.5504 1.51632,-7.65548 2.86796,-9.46714 1.36299,-1.81164 -3.77096,-1.20965 -3.4586,1.36301 0.301,2.56128 -1.96498,6.49125 -5.12826,7.54757 -3.16329,1.05633 -6.76955,0.74965 -4.96925,-2.11831 1.80028,-2.86798 0.14765,-5.43494 -1.20967,-8.15525 -1.35164,-2.72032 7.53055,-4.37863 9.34788,-6.03694 1.80597,-1.65831 -2.85661,-2.72031 -2.71463,-5.2816 0.15333,-2.57266 1.20965,-4.83295 3.00426,-5.13394 1.81165,-0.301 3.50403,-1.45954 5.12827,-1.35732 4.98061,0.30667 3.4586,11.6252 5.27592,15.25418 1.80597,3.61761 6.93424,8.00191 6.4799,11.1652 -0.45433,3.17464 -1.41978,4.98629 -5.11122,4.07761 -3.70848,-0.90865 -9.64319,4.67962 -11.91485,3.6233 -2.26597,-1.06199 3.91861,-3.92997 2.40229,-5.48037 m -32.47336,-63.49851 c 4.52628,2.2603 8.13254,-1.84004 11.29014,-2.72031 3.74255,-1.0336 5.87792,12.23288 2.26599,11.77855 -3.61763,-0.45434 -7.68389,7.24658 -12.9087,6.79225 -5.23049,-0.45433 -2.91341,-4.07195 -8.791315,-9.50689 -1.260775,-1.1699 -1.777571,-2.22622 -1.823005,-3.15192 1.255084,-1.20966 2.5045,-2.42499 3.80502,-3.58922 2.03314,-0.53952 4.44677,-0.46001 6.16187,0.39754 m 141.42206,227.96653 c 4.21959,-0.90299 3.40747,-8.93329 7.23522,-9.35923 8.13822,-0.90299 0.301,21.73976 -2.70896,28.08336 -3.01561,6.3436 -4.23095,6.03693 -7.09892,2.11265 -2.87932,-3.91861 -1.94794,-10.2679 0,-13.28352 1.94226,-3.02699 -1.65263,-6.6446 2.57266,-7.55326"
       fill="#000000"
       id="path1-4"
       style="fill:url(#linearGradient386);stroke:#000000;stroke-width:1.80332;stroke-dasharray:none;stroke-opacity:1;fill-opacity:1" /><g
       style="fill:#000000"
       id="g379"
       transform="matrix(1.0791607,0,0,1.0791607,247.28623,260.15867)"><g
         id="g378">
	<g
   id="g377">
		<path
   d="m 13.263,16.596 -0.719,-0.562 c -0.102,0.163 -0.163,0.354 -0.163,0.559 0,0.289 0.117,0.551 0.306,0.744 z"
   id="path372" />
		<path
   d="m 12.882,17.49 c 0.164,0.104 0.355,0.165 0.563,0.165 0.299,0 0.567,-0.125 0.761,-0.323 L 13.461,16.75 Z"
   id="path373" />
		<path
   d="m 13.979,15.678 c -0.157,-0.092 -0.339,-0.149 -0.534,-0.149 -0.291,0 -0.555,0.118 -0.746,0.308 l 0.719,0.562 z"
   id="path374" />
		<path
   d="m 14.354,17.131 c 0.095,-0.158 0.152,-0.34 0.152,-0.539 0,-0.299 -0.126,-0.57 -0.327,-0.764 l -0.565,0.725 z"
   id="path375" />
		<path
   d="m 29.713,24.617 c -0.02,-0.472 -0.201,-5.134 -0.123,-5.668 0.083,-0.562 0.188,-2.709 -0.042,-3.73 -0.23,-1.021 -0.416,-2.594 -0.271,-2.625 0.145,-0.031 1.125,0.688 1.354,0.938 0.151,0.166 -0.039,1.163 -0.188,1.817 -0.096,0.115 -0.156,0.261 -0.156,0.423 0,0.054 0.008,0.105 0.021,0.156 v 0 c 0.069,0.287 0.326,0.5 0.635,0.5 0.31,0 0.565,-0.212 0.637,-0.5 h 0.021 c 0,0 0.635,-2.313 0.303,-2.98 -0.334,-0.667 -3.396,-2.98 -3.752,-2.98 -0.354,0 -1.293,0.063 -1.541,0.125 -0.178,0.044 -1.756,1.354 -2.668,2.122 v -2.8 h -6.241 l 0.021,7.315 H 16.638 V 16.157 L 15.305,16.154 V 15.487 H 14.93 v -0.958 h 0.333 v -0.73 H 14.93 V 13.112 H 11.867 V 13.8 h -0.334 v 0.729 h 0.334 v 0.958 h -0.37 v 0.667 l -1.421,0.003 V 16.73 H 9.046 L 9.028,9.418 H 1.933 l 0.016,7.921 h 0.01 v 7.277 H 0 v 2 h 32 v -2 H 29.713 Z M 18.598,13.125 h 1.219 v 0.615 h -1.219 z m 0.007,1.575 v -0.614 h 1.219 v 0.615 z m 1.215,0.343 v 0.615 h -1.219 v -0.615 z m -6.376,0.236 c 0.724,0 1.313,0.589 1.313,1.312 0,0.725 -0.589,1.313 -1.313,1.313 -0.725,0 -1.313,-0.589 -1.313,-1.313 0,-0.723 0.589,-1.312 1.313,-1.312 z M 7.46,10.402 h 0.667 v 5.379 H 7.46 Z M 19.088,24.825 H 6.876 v -1.792 h 12.212 z m 3.269,-4.647 H 3.568 v -0.707 h 18.79 v 0.707 z M 20.229,14.715 V 14.1 h 1.22 v 0.615 z m 1.214,0.342 v 0.615 H 20.224 V 15.057 Z M 21.439,13.754 H 20.22 v -0.615 h 1.219 z M 22.24,13.75 h -0.43 v -0.615 h 0.729 c -0.184,0.116 -0.307,0.32 -0.307,0.553 0.002,0.02 0.006,0.04 0.008,0.062 z m 0.793,1.917 h -1.219 v -0.615 h 1.219 z m 0.004,-0.957 h -1.219 v -0.615 h 0.562 c 0.12,0.15 0.304,0.249 0.511,0.249 0.051,0 0.101,-0.007 0.146,-0.018 z m 0.041,-1.992 h -4.471 v -2.344 h 4.471 z m 3.031,3.438 c -0.219,0.562 -1.459,2.417 -1.375,3.271 0.063,0.664 0.078,4.305 0.1,4.623 -0.354,0 -0.538,0.322 -0.555,0.565 l -0.348,0.021 0.004,-10.781 c 0.69,-0.477 1.978,-1.325 2.069,-1.262 0.137,0.095 0.323,3.001 0.105,3.563 z m 1.909,7.877 c -0.26,0 -0.47,0.21 -0.47,0.469 0,0.041 0.007,0.078 0.017,0.115 H 26.61 c -0.012,-0.591 -0.082,-4.238 -0.082,-4.812 0,-0.625 1.396,-2.084 1.396,-2.084 0,0 -0.104,2.041 -0.104,2.416 0,0.299 0.146,2.857 0.205,3.896 z"
   id="path376" />
		<path
   d="m 25.174,8.04 c 0.016,-10e-4 0.086,-0.016 0.198,-0.042 0.015,0.148 0.044,0.298 0.096,0.445 0.337,0.954 1.37,1.462 2.304,1.133 0.932,-0.329 1.416,-1.373 1.08,-2.327 -0.009,-0.022 -0.019,-0.043 -0.026,-0.065 0.116,-0.028 0.188,-0.045 0.188,-0.045 0,0 -0.062,-0.654 -0.505,-1.164 C 27.956,5.761 27.274,5.74 26.745,5.946 26.585,6.009 26.4,6.108 26.24,6.262 26.068,6.364 25.918,6.492 25.793,6.641 25.941,6.254 26.247,5.961 26.684,5.792 27.143,5.616 27.712,5.597 28.227,5.718 27.93,5.501 27.52,5.356 26.957,5.388 c -1.883,0.107 -1.712,2.129 -1.712,2.129 0,0 -0.126,0.013 -0.226,0.048 -0.099,0.035 -0.193,0.038 -0.153,0.193 0.009,0.026 -0.003,-0.001 0.041,0.178 0.042,0.131 0.141,0.117 0.267,0.104 z m 3.324,-0.778 c 0.014,0.032 0.027,0.064 0.04,0.097 C 28.812,8.141 28.42,8.995 27.659,9.263 26.9,9.531 26.056,9.114 25.781,8.332 25.732,8.197 25.707,8.059 25.698,7.922 c 0.74,-0.17 2.07,-0.486 2.8,-0.66 z"
   id="path377" />
	</g>
</g></g><g
       style="fill:#000000"
       id="g380"
       transform="matrix(0.43817306,0,0,0.43817306,79.314128,85.390784)"><path
         d="M 39.576,23.011 28.074,11.499 39.576,0 51.076,11.507 Z M 53.62,37.049 65.12,25.546 53.611,14.038 42.112,25.537 Z M 67.642,51.072 79.141,39.573 67.634,28.066 56.13,39.567 Z M 81.667,65.103 93.17,53.604 81.667,42.1 70.168,53.611 Z M 37.057,25.537 25.538,14.038 14.038,25.537 25.545,37.049 Z M 51.075,39.573 39.567,28.066 28.061,39.573 39.568,51.08 Z M 53.604,42.1 42.092,53.619 53.603,65.126 65.104,53.619 Z M 11.508,28.074 0.008,39.581 11.527,51.093 23.035,39.581 Z m 2.53,25.537 11.507,11.507 11.52,-11.507 -11.511,-11.52 z M 51.083,67.633 39.576,56.113 28.069,67.633 39.576,79.14 Z M 65.105,81.643 53.604,70.144 42.092,81.651 53.597,93.163 Z m 67.395,34.29 11.497,-11.501 -11.497,-11.506 -11.501,11.506 z m 14.03,14.026 11.497,-11.497 -11.514,-11.518 -11.501,11.501 z m 14.033,14.03 11.502,-11.498 -11.502,-11.493 -11.505,11.501 z m 14.01,-8.985 -11.501,11.51 11.521,11.513 11.501,-11.497 z m -68.89,-26.493 -21.08,21.083 c -3.085,3.082 -8.137,3.094 -11.231,0 l -7.011,-7.041 -16.847,16.852 -2.809,-2.806 16.855,-16.843 -7.035,-7.029 c -3.094,-3.098 -3.085,-8.159 0,-11.24 l 21.067,-21.073 -5.61,-5.631 -4.348,4.358 -11.503,-11.5 11.503,-11.519 11.499,11.511 -4.35,4.346 5.623,5.624 21.077,-21.071 c 3.098,-3.102 8.147,-3.102 11.236,0 l 16.859,16.845 c 3.09,3.094 3.09,8.143 0,11.233 l -21.091,21.079 5.635,5.627 4.355,-4.372 11.506,11.501 -11.506,11.529 -11.501,-11.505 4.348,-4.364 z m 6.479,-46.931 c -2.77,-2.779 -7.338,-2.779 -10.106,0 l -40.443,40.442 c -2.779,2.777 -2.779,7.346 0,10.123 z m 8.828,70.911 11.518,11.498 11.505,-11.498 -11.505,-11.518 z m 37.037,14.023 -11.497,-11.51 -11.518,11.51 11.518,11.513 z m -8.985,14.042 11.521,11.518 11.502,-11.518 -11.502,-11.506 z m -44.603,-39.558 -11.513,11.514 11.513,11.509 11.502,-11.521 z m 14.015,14.006 -11.498,11.525 11.498,11.497 11.517,-11.497 z m 14.029,14.03 -11.501,11.521 11.501,11.501 11.514,-11.501 z m 2.538,25.543 11.518,11.525 11.497,-11.525 -11.497,-11.497 z M 41.964,144.129 c -4.412,-4.408 -5.678,-10.563 -4.398,-16.262 l -5.354,1.803 c -0.613,6.44 1.256,13.076 6.193,18.014 4.938,4.938 11.574,6.809 18.032,6.212 l 1.783,-5.383 c -5.677,1.302 -11.838,0.032 -16.256,-4.384 z m -15.138,-12.676 -4.907,1.644 c 0.322,7.879 3.4,15.685 9.387,21.704 6,5.995 13.804,9.053 21.684,9.373 l 1.633,-4.905 c -7.153,0.061 -14.309,-2.592 -19.767,-8.026 -5.431,-5.474 -8.092,-12.629 -8.03,-19.79 z m -9.76,3.255 -4.849,1.623 c 0.998,9.329 4.885,18.397 12.01,25.531 7.137,7.137 16.202,11.016 25.536,12.01 l 1.627,-4.861 c -8.618,-0.673 -17.044,-4.115 -23.614,-10.691 -6.57,-6.565 -10.023,-15.005 -10.71,-23.612 z"
         id="path379" /></g><path
       d="m 313.97009,175.24549 c -0.27225,-0.16274 -1.18943,-0.69962 -1.45664,-0.83707 l -5.28263,-2.96927 a 0.16875856,0.17260513 76.80645 0 1 -0.0908,-0.15184 l -2.56504,-18.63898 a 0.8299601,0.84887764 76.80645 0 0 -0.35687,-0.59964 l -2.1538,-1.2859 -2.1385,16.20659 a 0.21671181,0.22165139 76.80645 0 1 -0.34719,0.15652 l -9.83635,-5.67707 a 0.74327538,0.76021709 76.80645 0 1 -0.37488,-0.56045 l -0.73161,-5.32344 c -0.0469,-0.45147 -0.39284,-0.88607 -0.78451,-1.11991 l -1.51063,-0.90193 c -0.10347,-0.0614 -0.14812,0.043 -0.18055,0.15608 l -1.95331,6.58948 a 1.5031499,1.5374117 76.80645 0 1 -0.59024,0.93985 l -5.12227,4.67365 c -0.14395,0.1258 -0.19045,0.21207 -0.007,0.32159 l 1.43537,0.8569 c 0.65198,0.38926 0.7935,0.35858 1.3866,0.14365 l 5.2864,-1.80655 a 0.75526369,0.77247865 76.80645 0 1 0.6824,0.0708 l 9.53233,5.98405 a 0.24898803,0.25466329 76.80645 0 1 0.009,0.41159 l -13.80145,9.20661 2.1338,1.27392 a 0.8299601,0.84887764 76.80645 0 0 0.70871,0.0377 l 18.21007,-6.22569 c 0.0611,-0.0286 0.20481,0.0246 0.26021,0.0572 l 5.03393,3.18994 c 0.25436,0.17367 1.15391,0.72113 1.42696,0.88434 3.54588,2.11704 6.39227,2.49477 7.38081,0.92072 0.98853,-1.57407 -0.64592,-3.86057 -4.20224,-5.98378 z"
       style="fill:none;stroke:#000000;stroke-width:2;stroke-linecap:round;stroke-linejoin:round;stroke-dasharray:none"
       id="path380" /><g
       style="fill:#000000"
       id="g385"
       transform="matrix(0.16998101,0,0,0.16998101,273.93345,277.74694)"><g
         id="g384">
	<path
   d="m 172.631,211.084 c -17.389,-3.674 -34.588,-0.419 -48.851,7.808 -9.732,-13.297 -24.135,-23.235 -41.523,-26.908 -37.423,-7.912 -74.2,16.02 -82.111,53.458 -0.031,0.144 -0.06,0.289 -0.09,0.433 -0.259,1.244 0.397,2.503 1.563,3.015 1.165,0.514 2.528,0.146 3.274,-0.885 14.909,-20.499 41.285,-25.346 69.611,-19.359 17.388,3.674 31.8,13.616 41.524,26.908 14.263,-8.221 31.472,-11.48 48.859,-7.809 28.326,5.982 50.472,21.086 55.826,45.858 0.269,1.245 1.363,2.13 2.638,2.135 1.274,0.006 2.368,-0.88 2.646,-2.119 0.031,-0.145 0.06,-0.283 0.09,-0.423 7.914,-37.443 -16.033,-74.206 -53.456,-82.112 z"
   id="path381" />
	<path
   d="m 269.374,142.83 c -13.557,-6.32 -28.276,-6.917 -41.544,-2.886 -5.453,-12.75 -15.368,-23.639 -28.924,-29.959 -29.191,-13.605 -63.897,-0.97 -77.504,28.222 0,0 -0.009,0.009 -0.009,0.02 -0.469,1 -0.169,2.195 0.717,2.861 0.875,0.667 2.109,0.632 2.945,-0.085 16.103,-13.755 38.538,-12.675 60.523,-2.429 13.557,6.321 23.479,17.209 28.924,29.96 13.258,-4.033 27.988,-3.435 41.545,2.881 22.424,10.455 37.841,27.391 37.024,49.188 -0.029,0.971 0.616,1.831 1.553,2.075 0.945,0.238 1.921,-0.214 2.349,-1.08 0.209,-0.423 0.418,-0.847 0.616,-1.273 13.607,-29.193 0.967,-63.894 -28.215,-77.495 z"
   id="path382" />
	<path
   d="m 94.51,37.677 c 0.606,0.254 1.313,0.05 1.702,-0.492 7.256,-10.366 20.402,-13.103 34.655,-10.466 8.789,1.622 16.164,6.439 21.22,13.003 7.066,-4.324 15.686,-6.186 24.484,-4.559 14.253,2.633 25.539,9.888 28.625,22.165 0.159,0.643 0.747,1.086 1.403,1.06 0.657,-0.019 1.215,-0.497 1.334,-1.149 3.503,-18.931 -9.008,-37.12 -27.939,-40.618 -8.798,-1.623 -17.407,0.233 -24.475,4.558 C 150.463,14.615 143.078,9.798 134.29,8.176 115.349,4.677 97.165,17.188 93.661,36.124 c -0.117,0.652 0.231,1.3 0.849,1.553 z"
   id="path383" />
	<path
   d="m 258.933,35.328 c 5.025,4.519 7.872,10.541 8.54,16.771 6.259,0.005 12.559,2.215 17.596,6.739 8.48,7.628 12.909,17.223 9.296,26.728 -0.139,0.354 0,0.752 0.309,0.956 0.319,0.204 0.737,0.159 1.006,-0.11 0.298,-0.302 0.597,-0.616 0.886,-0.939 9.733,-10.825 8.858,-27.496 -1.971,-37.24 -5.027,-4.523 -11.316,-6.728 -17.577,-6.733 -0.666,-6.225 -3.533,-12.251 -8.55,-16.776 -10.828,-9.744 -27.5,-8.863 -37.244,1.961 -0.338,0.383 -0.367,0.936 -0.069,1.343 0.288,0.403 0.825,0.547 1.284,0.349 8.777,-3.813 18.343,-0.379 26.494,6.951 z"
   id="path384" />
</g></g><text
       xml:space="preserve"
       id="text388"
       style="font-style:italic;font-variant:normal;font-weight:bold;font-stretch:normal;font-size:18.6667px;font-family:Lato;-inkscape-font-specification:'Lato, Bold Italic';font-variant-ligatures:normal;font-variant-caps:normal;font-variant-numeric:normal;font-variant-east-asian:normal;white-space:pre;shape-inside:url(#rect388);fill:#000000;stroke:none;stroke-width:2;stroke-miterlimit:0;stroke-dasharray:none;stroke-opacity:1"
       transform="translate(41.191275,-182.25738)"><tspan
         x="560.9082"
         y="256.66667"
         id="tspan7">Уровень 1</tspan></text><text
       xml:space="preserve"
       id="text388-5"
       style="font-style:italic;font-variant:normal;font-weight:bold;font-stretch:normal;font-size:18.6667px;font-family:Lato;-inkscape-font-specification:'Lato, Bold Italic';font-variant-ligatures:normal;font-variant-caps:normal;font-variant-numeric:normal;font-variant-east-asian:normal;white-space:pre;shape-inside:url(#rect388-8);fill:#000000;stroke:none;stroke-width:2;stroke-miterlimit:0;stroke-dasharray:none;stroke-opacity:1"
       transform="translate(37.620732,-46.771252)"><tspan
         x="560.9082"
         y="256.66667"
         id="tspan8">Уровень 2</tspan></text><text
       xml:space="preserve"
       id="text388-5-6"
       style="font-style:italic;font-variant:normal;font-weight:bold;font-stretch:normal;font-size:18.6667px;font-family:Lato;-inkscape-font-specification:'Lato, Bold Italic';font-variant-ligatures:normal;font-variant-caps:normal;font-variant-numeric:normal;font-variant-east-asian:normal;white-space:pre;shape-inside:url(#rect388-8-8);fill:#000000;stroke:none;stroke-width:2;stroke-miterlimit:0;stroke-dasharray:none;stroke-opacity:1"
       transform="translate(37.639398,103.35605)"><tspan
         x="560.9082"
         y="256.66667"
         id="tspan9">Уровень 3</tspan></text><text
       xml:space="preserve"
       id="text388-5-5"
       style="font-style:italic;font-variant:normal;font-weight:bold;font-stretch:normal;font-size:18.6667px;font-family:Lato;-inkscape-font-specification:'Lato, Bold Italic';font-variant-ligatures:normal;font-variant-caps:normal;font-variant-numeric:normal;font-variant-east-asian:normal;white-space:pre;shape-inside:url(#rect388-8-3);display:inline;fill:#000000;stroke:none;stroke-width:2;stroke-miterlimit:0;stroke-dasharray:none;stroke-opacity:1"
       transform="translate(37.662732,260.39151)"><tspan
         x="560.9082"
         y="256.66667"
         id="tspan10">Уровень 4</tspan></text><text
       xml:space="preserve"
       style="font-style:normal;font-variant:normal;font-weight:800;font-stretch:normal;font-size:24px;font-family:Lato;-inkscape-font-specification:'Lato, Ultra-Bold';font-variant-ligatures:normal;font-variant-caps:normal;font-variant-numeric:normal;font-variant-east-asian:normal;fill:#000000;stroke-width:2;stroke-miterlimit:0"
       x="582.96356"
       y="108.54664"
       id="text3"><tspan
         sodipodi:role="line"
         id="tspan3"
         x="582.96356"
         y="108.54664">СПУТНИК</tspan></text><text
       xml:space="preserve"
       style="font-style:normal;font-variant:normal;font-weight:800;font-stretch:normal;font-size:24px;font-family:Lato;-inkscape-font-specification:'Lato,  weight=275';font-variant-ligatures:normal;font-variant-caps:normal;font-variant-numeric:normal;font-variant-east-asian:normal;fill:#000000;stroke-width:2;stroke-miterlimit:0"
       x="560.29034"
       y="243.34641"
       id="text4"><tspan
         sodipodi:role="line"
         id="tspan4"
         x="560.29034"
         y="243.34641">10000 метров</tspan></text><text
       xml:space="preserve"
       style="font-style:normal;font-variant:normal;font-weight:800;font-stretch:normal;font-size:21.3333px;font-family:Lato;-inkscape-font-specification:'Lato,  weight=275';font-variant-ligatures:normal;font-variant-caps:normal;font-variant-numeric:normal;font-variant-east-asian:normal;fill:#000000;stroke-width:2;stroke-miterlimit:0"
       x="549.84052"
       y="549.63049"
       id="text4-8"><tspan
         sodipodi:role="line"
         id="tspan4-8"
         x="549.84052"
         y="549.63049">РАБОЧЕЕ МЕСТО</tspan></text><text
       xml:space="preserve"
       style="font-style:normal;font-variant:normal;font-weight:800;font-stretch:normal;font-size:21.3333px;font-family:Lato;-inkscape-font-specification:'Lato, Ultra-Bold';font-variant-ligatures:normal;font-variant-caps:normal;font-variant-numeric:normal;font-variant-east-asian:normal;fill:#000000;stroke-width:2;stroke-miterlimit:0"
       x="552.67249"
       y="394.00931"
       id="text4-9"><tspan
         sodipodi:role="line"
         id="tspan4-1"
         x="552.67249"
         y="394.00931">ПТИЧИЙ ПОЛЕТ</tspan></text></g></svg>
