<?xml version="1.0" encoding="UTF-8" standalone="no"?>
<svg width="141.111mm" height="117.122mm"
 viewBox="109 85 800 664"
 xmlns="http://www.w3.org/2000/svg" xmlns:xlink="http://www.w3.org/1999/xlink"  version="1.2" baseProfile="tiny">
<title>FX Draw</title>
<desc>Efofex Encoded SVG</desc>
<defs>
</defs>
<g fill="none" stroke="black" stroke-width="1" fill-rule="evenodd" stroke-linecap="square" stroke-linejoin="bevel" >

<g fill="#808080" fill-opacity="1" stroke="#ff0000" stroke-opacity="1" stroke-width="4" stroke-linecap="square" stroke-linejoin="bevel" transform="matrix(1,0,0,1,0,0)"
font-family="Lato" font-size="24" font-weight="400" font-style="normal" 
>
<polyline fill="none" vector-effect="none" points="120,529.941 121.894,529.936 123.788,529.93 125.683,529.923 127.577,529.916 129.471,529.909 131.365,529.901 133.259,529.892 135.153,529.883 137.048,529.872 138.942,529.861 140.836,529.849 142.73,529.836 144.624,529.822 146.519,529.807 148.413,529.791 150.307,529.773 152.201,529.754 154.095,529.734 155.989,529.712 157.884,529.688 159.778,529.663 161.672,529.635 163.566,529.606 165.46,529.574 167.354,529.54 169.249,529.504 171.143,529.465 173.037,529.423 174.931,529.378 176.825,529.33 178.72,529.278 180.614,529.223 182.508,529.163 184.402,529.1 186.296,529.033 188.19,528.96 190.085,528.883 191.979,528.801 193.873,528.713 195.767,528.619 197.661,528.52 199.556,528.413 201.45,528.3 203.344,528.179 205.238,528.051 207.132,527.915 209.026,527.77 210.921,527.616 212.815,527.452 214.709,527.279 216.603,527.095 218.497,526.9 220.392,526.693 222.286,526.474 224.18,526.242 226.074,525.996 227.968,525.737 229.862,525.462 231.757,525.172 233.651,524.866 235.545,524.543 237.439,524.202 239.333,523.842 241.227,523.463 243.122,523.063 245.016,522.643 246.91,522.2 248.804,521.734 250.698,521.244 252.593,520.729 254.487,520.189 256.381,519.621 258.275,519.025 260.169,518.4 262.063,517.745 263.958,517.059 265.852,516.34 267.746,515.587 269.64,514.8 271.534,513.976 273.429,513.116 275.323,512.217 277.217,511.278 279.111,510.298 281.005,509.277 282.899,508.211 284.794,507.101 286.688,505.945 288.582,504.742 290.476,503.49 292.37,502.189 294.265,500.836 296.159,499.43 298.053,497.971 299.947,496.457 301.841,494.887 303.735,493.26 305.63,491.574 307.524,489.828 309.418,488.021 311.312,486.152 313.206,484.22 315.101,482.223 316.995,480.162 318.889,478.034 320.783,475.839 322.677,473.576 324.571,471.244 326.466,468.843 328.36,466.372 330.254,463.829 332.148,461.215 334.042,458.529 335.936,455.771 337.831,452.94 339.725,450.036 341.619,447.059 343.513,444.008 345.407,440.885 347.302,437.688 349.196,434.419 351.09,431.077 352.984,427.664 354.878,424.178 356.772,420.622 358.667,416.996 360.561,413.301 362.455,409.538 364.349,405.707 366.243,401.812 368.138,397.851 370.032,393.829 371.926,389.745 373.82,385.602 375.714,381.401 377.608,377.145 379.503,372.837 381.397,368.477 383.291,364.069 385.185,359.616 387.079,355.12 388.974,350.583 390.868,346.009 392.762,341.402 394.656,336.763 396.55,332.098 398.444,327.408 400.339,322.698 402.233,317.971 404.127,313.231 406.021,308.483 407.915,303.729 409.809,298.975 411.704,294.224 413.598,289.48 415.492,284.749 417.386,280.033 419.28,275.339 421.175,270.67 423.069,266.031 424.963,261.427 426.857,256.862 428.751,252.341 430.645,247.869 432.54,243.45 434.434,239.089 436.328,234.792 438.222,230.561 440.116,226.404 442.011,222.323 443.905,218.323 445.799,214.41 447.693,210.588 449.587,206.861 451.481,203.234 453.376,199.71 455.27,196.295 457.164,192.991 459.058,189.804 460.952,186.738 462.847,183.795 464.741,180.979 466.635,178.295 468.529,175.746 470.423,173.334 472.317,171.062 474.212,168.935 476.106,166.954 478,165.121 479.894,163.44 481.788,161.913 483.683,160.54 485.577,159.325 487.471,158.269 489.365,157.373 491.259,156.638 493.153,156.066 495.048,155.656 496.942,155.41 498.836,155.328 500.73,155.41 502.624,155.656 504.518,156.066 506.413,156.638 508.307,157.373 510.201,158.269 512.095,159.325 513.989,160.54 515.884,161.913 517.778,163.44 519.672,165.121 521.566,166.954 523.46,168.935 525.354,171.062 527.249,173.334 529.143,175.746 531.037,178.295 532.931,180.979 534.825,183.795 536.72,186.738 538.614,189.804 540.508,192.991 542.402,196.295 544.296,199.71 546.19,203.234 548.085,206.861 549.979,210.588 551.873,214.41 553.767,218.323 555.661,222.323 557.556,226.404 559.45,230.561 561.344,234.792 563.238,239.089 565.132,243.45 567.026,247.869 568.921,252.341 570.815,256.862 572.709,261.427 574.603,266.031 576.497,270.67 578.391,275.339 580.286,280.033 582.18,284.749 584.074,289.48 585.968,294.224 587.862,298.975 589.757,303.729 591.651,308.483 593.545,313.231 595.439,317.971 597.333,322.698 599.227,327.408 601.122,332.098 603.016,336.763 604.91,341.402 606.804,346.009 608.698,350.583 610.593,355.12 612.487,359.616 614.381,364.069 616.275,368.477 618.169,372.837 620.063,377.145 621.958,381.401 623.852,385.602 625.746,389.745 627.64,393.829 629.534,397.851 631.429,401.812 633.323,405.707 635.217,409.538 637.111,413.301 639.005,416.996 640.899,420.622 642.794,424.178 644.688,427.664 646.582,431.077 648.476,434.419 650.37,437.688 652.264,440.885 654.159,444.008 656.053,447.059 657.947,450.036 659.841,452.94 661.735,455.771 663.63,458.529 665.524,461.215 667.418,463.829 669.312,466.372 671.206,468.843 673.1,471.244 674.995,473.576 676.889,475.839 678.783,478.034 680.677,480.162 682.571,482.223 684.466,484.22 686.36,486.152 688.254,488.021 690.148,489.828 692.042,491.574 693.936,493.26 695.831,494.887 697.725,496.457 699.619,497.971 701.513,499.43 703.407,500.836 705.302,502.189 707.196,503.49 709.09,504.742 710.984,505.945 712.878,507.101 714.772,508.211 716.667,509.277 718.561,510.298 720.455,511.278 722.349,512.217 724.243,513.116 726.137,513.976 728.032,514.8 729.926,515.587 731.82,516.34 733.714,517.059 735.608,517.745 737.503,518.4 739.397,519.025 741.291,519.621 743.185,520.189 745.079,520.729 746.973,521.244 748.868,521.734 750.762,522.2 752.656,522.643 754.55,523.063 756.444,523.463 758.339,523.842 760.233,524.202 762.127,524.543 764.021,524.866 765.915,525.172 767.809,525.462 769.704,525.737 771.598,525.996 773.492,526.242 775.386,526.474 777.28,526.693 779.175,526.9 781.069,527.095 782.963,527.279 784.857,527.452 786.751,527.616 788.645,527.77 790.54,527.915 792.434,528.051 794.328,528.179 796.222,528.3 798.116,528.413 800.011,528.52 801.905,528.619 803.799,528.713 805.693,528.801 807.587,528.883 809.481,528.96 811.376,529.033 813.27,529.1 815.164,529.163 817.058,529.223 818.952,529.278 820.846,529.33 822.741,529.378 824.635,529.423 826.529,529.465 828.423,529.504 830.317,529.54 832.212,529.574 834.106,529.606 836,529.635 837.894,529.663 839.788,529.688 841.682,529.712 843.577,529.734 845.471,529.754 847.365,529.773 849.259,529.791 851.153,529.807 853.048,529.822 854.942,529.836 856.836,529.849 858.73,529.861 860.624,529.872 862.518,529.883 864.413,529.892 866.307,529.901 868.201,529.909 870.095,529.916 871.989,529.923 873.884,529.93 875.778,529.936 " />
</g>

<g fill="#808080" fill-opacity="1" stroke="#000000" stroke-opacity="1" stroke-width="1" stroke-linecap="square" stroke-linejoin="bevel" transform="matrix(1,0,0,1,0,0)"
font-family="Lato" font-size="24" font-weight="400" font-style="normal" 
>
<polyline fill="none" vector-effect="none" points="120,530 877.672,530 " />
<polyline fill="none" vector-effect="none" points="181.979,532.5 181.979,527.5 " />
<polyline fill="none" vector-effect="none" points="227.244,532.5 227.244,527.5 " />
<polyline fill="none" vector-effect="none" points="272.509,532.5 272.509,527.5 " />
<polyline fill="none" vector-effect="none" points="363.04,532.5 363.04,527.5 " />
<polyline fill="none" vector-effect="none" points="408.305,532.5 408.305,527.5 " />
<polyline fill="none" vector-effect="none" points="453.571,532.5 453.571,527.5 " />
<polyline fill="none" vector-effect="none" points="544.101,532.5 544.101,527.5 " />
<polyline fill="none" vector-effect="none" points="589.367,532.5 589.367,527.5 " />
<polyline fill="none" vector-effect="none" points="634.632,532.5 634.632,527.5 " />
<polyline fill="none" vector-effect="none" points="725.163,532.5 725.163,527.5 " />
<polyline fill="none" vector-effect="none" points="770.428,532.5 770.428,527.5 " />
<polyline fill="none" vector-effect="none" points="815.693,532.5 815.693,527.5 " />
</g>

<g fill="#808080" fill-opacity="1" stroke="#000000" stroke-opacity="1" stroke-width="1" stroke-linecap="square" stroke-linejoin="bevel" transform="matrix(1,0,0,1,0,0)"
font-family="Lato" font-size="24" font-weight="400" font-style="normal" 
>
<polyline fill="none" vector-effect="none" points="136.713,535 136.713,525 " />
</g>

<g fill="#000000" fill-opacity="1" stroke="#000000" stroke-opacity="1" stroke-width="2" stroke-linecap="square" stroke-linejoin="bevel" transform="matrix(1,0,0,1,0,0)"
font-family="Lato" font-size="24" font-weight="400" font-style="normal" 
>
<text fill="#000000" fill-opacity="1" stroke="none" xml:space="preserve" x="121.422" y="563.688" font-family="Lato" font-size="24" font-weight="400" font-style="normal" 
 >&#8211;4</text>
</g>

<g fill="#000000" fill-opacity="1" stroke="#000000" stroke-opacity="1" stroke-width="1" stroke-linecap="square" stroke-linejoin="bevel" transform="matrix(1,0,0,1,0,0)"
font-family="Lato" font-size="24" font-weight="400" font-style="normal" 
>
<polyline fill="none" vector-effect="none" points="317.775,535 317.775,525 " />
</g>

<g fill="#000000" fill-opacity="1" stroke="#000000" stroke-opacity="1" stroke-width="2" stroke-linecap="square" stroke-linejoin="bevel" transform="matrix(1,0,0,1,0,0)"
font-family="Lato" font-size="24" font-weight="400" font-style="normal" 
>
<text fill="#000000" fill-opacity="1" stroke="none" xml:space="preserve" x="302.422" y="563.688" font-family="Lato" font-size="24" font-weight="400" font-style="normal" 
 >&#8211;2</text>
</g>

<g fill="#000000" fill-opacity="1" stroke="#000000" stroke-opacity="1" stroke-width="1" stroke-linecap="square" stroke-linejoin="bevel" transform="matrix(1,0,0,1,0,0)"
font-family="Lato" font-size="24" font-weight="400" font-style="normal" 
>
<polyline fill="none" vector-effect="none" points="498.836,535 498.836,525 " />
<polyline fill="none" vector-effect="none" points="679.897,535 679.897,525 " />
</g>

<g fill="#000000" fill-opacity="1" stroke="#000000" stroke-opacity="1" stroke-width="2" stroke-linecap="square" stroke-linejoin="bevel" transform="matrix(1,0,0,1,0,0)"
font-family="Lato" font-size="24" font-weight="400" font-style="normal" 
>
<text fill="#000000" fill-opacity="1" stroke="none" xml:space="preserve" x="671.563" y="563.688" font-family="Lato" font-size="24" font-weight="400" font-style="normal" 
 >2</text>
</g>

<g fill="#000000" fill-opacity="1" stroke="#000000" stroke-opacity="1" stroke-width="1" stroke-linecap="square" stroke-linejoin="bevel" transform="matrix(1,0,0,1,0,0)"
font-family="Lato" font-size="24" font-weight="400" font-style="normal" 
>
<polyline fill="none" vector-effect="none" points="860.959,535 860.959,525 " />
</g>

<g fill="#000000" fill-opacity="1" stroke="#000000" stroke-opacity="1" stroke-width="2" stroke-linecap="square" stroke-linejoin="bevel" transform="matrix(1,0,0,1,0,0)"
font-family="Lato" font-size="24" font-weight="400" font-style="normal" 
>
<text fill="#000000" fill-opacity="1" stroke="none" xml:space="preserve" x="852.563" y="563.688" font-family="Lato" font-size="24" font-weight="400" font-style="normal" 
 >4</text>
</g>

<g fill="#000000" fill-opacity="1" stroke="#000000" stroke-opacity="1" stroke-width="1" stroke-linecap="round" stroke-linejoin="bevel" transform="matrix(1,0,0,1,0,0)"
font-family="Lato" font-size="24" font-weight="400" font-style="normal" 
>
<polyline fill="none" vector-effect="none" points="867.672,534.5 877.672,530 " />
<polyline fill="none" vector-effect="none" points="867.672,525.5 877.672,530 " />
</g>

<g fill="#000000" fill-opacity="1" stroke="#000000" stroke-opacity="1" stroke-width="1" stroke-linecap="round" stroke-linejoin="bevel" transform="matrix(1,0,0,1,0,0)"
font-family="Lato" font-size="24" font-weight="400" font-style="normal" 
>
<polyline fill="none" vector-effect="none" points="130,525.5 120,530 " />
<polyline fill="none" vector-effect="none" points="130,534.5 120,530 " />
</g>

<g fill="#000000" fill-opacity="1" stroke="#000000" stroke-opacity="1" stroke-width="1" stroke-linecap="square" stroke-linejoin="bevel" transform="matrix(1,0,0,1,0,0)"
font-family="Times New Roman" font-size="24" font-weight="400" font-style="normal" 
>
<text fill="#000000" fill-opacity="1" stroke="none" xml:space="preserve" x="882.672" y="536.5" font-family="Times New Roman" font-size="24" font-weight="400" font-style="normal" 
 >X</text>
</g>

<g fill="#000000" fill-opacity="1" stroke="#000000" stroke-opacity="1" stroke-width="1" stroke-linecap="square" stroke-linejoin="bevel" transform="matrix(1,0,0,1,0,0)"
font-family="Times New Roman" font-size="24" font-weight="400" font-style="normal" 
>
<polyline fill="none" vector-effect="none" points="498.836,530 498.836,138.609 " />
</g>

<g fill="#000000" fill-opacity="1" stroke="#000000" stroke-opacity="1" stroke-width="1" stroke-linecap="square" stroke-linejoin="bevel" transform="matrix(1,0,0,1,0,0)"
font-family="Lato" font-size="24" font-weight="400" font-style="normal" 
>
<polyline fill="none" vector-effect="none" points="493.836,530 503.836,530 " />
</g>

<g fill="#000000" fill-opacity="1" stroke="#000000" stroke-opacity="1" stroke-width="1" stroke-linecap="round" stroke-linejoin="bevel" transform="matrix(1,0,0,1,0,0)"
font-family="Lato" font-size="24" font-weight="400" font-style="normal" 
>
<polyline fill="none" vector-effect="none" points="503.336,148.609 498.836,138.609 " />
<polyline fill="none" vector-effect="none" points="494.336,148.609 498.836,138.609 " />
</g>

<g fill="#000000" fill-opacity="1" stroke="#000000" stroke-opacity="1" stroke-width="1" stroke-linecap="square" stroke-linejoin="bevel" transform="matrix(1,0,0,1,0,0)"
font-family="Lato Medium" font-size="28" font-weight="400" font-style="normal" 
>
<text fill="#000000" fill-opacity="1" stroke="none" xml:space="preserve" x="341.125" y="125.359" font-family="Lato Medium" font-size="28" font-weight="400" font-style="normal" 
 >&#1062;&#1077;&#1085;&#1090;&#1088;&#1072;&#1083;&#1100;&#1085;&#1072;&#1103; &#1090;&#1077;&#1085;&#1076;&#1077;&#1085;&#1094;&#1080;&#1103;</text>
</g>

<g fill="none" stroke="#000000" stroke-opacity="1" stroke-width="2" stroke-linecap="square" stroke-linejoin="bevel" transform="matrix(1,0,0,1,0,0)"
font-family="Efofex" font-size="22" font-weight="400" font-style="normal" 
>
</g>

<g fill="#000000" fill-opacity="1" stroke="none" transform="matrix(1,0,0,1,0,0)"
font-family="Efofex" font-size="22" font-weight="400" font-style="normal" 
>
<rect x="480.89" y="480.89" width="2" height="2"/>
</g>

<g fill="none" stroke="#000000" stroke-opacity="1" stroke-width="2" stroke-linecap="square" stroke-linejoin="bevel" transform="matrix(1,0,0,1,0,0)"
font-family="Efofex" font-size="22" font-weight="400" font-style="normal" 
>
</g>

<g fill="none" stroke="#000000" stroke-opacity="1" stroke-width="2" stroke-linecap="square" stroke-linejoin="bevel" transform="matrix(1,0,0,1,0,0)"
font-family="Efofex" font-size="22" font-weight="400" font-style="normal" 
>
<polyline fill="none" vector-effect="none" points="317.991,96.0378 317.991,738.482 " />
</g>

<g fill="#000000" fill-opacity="1" stroke="#000000" stroke-opacity="1" stroke-width="1" stroke-linecap="square" stroke-linejoin="bevel" transform="matrix(1,0,0,1,0,0)"
font-family="Tahoma" font-size="24" font-weight="400" font-style="normal" 
>
</g>

<g fill="#000000" fill-opacity="1" stroke="#000000" stroke-opacity="1" stroke-width="1" stroke-linecap="square" stroke-linejoin="bevel" transform="matrix(3.38014e-10,1,-1,3.38014e-10,294,417)"
font-family="Tahoma" font-size="24" font-weight="400" font-style="normal" 
>
<text fill="#000000" fill-opacity="1" stroke="none" xml:space="preserve" x="-166.625" y="9.53125" font-family="Tahoma" font-size="24" font-weight="400" font-style="normal" 
 >&#1053;&#1080;&#1078;&#1085;&#1077;&#1077; &#1087;&#1088;&#1077;&#1076;&#1077;&#1083;&#1100;&#1085;&#1086;&#1077; &#1079;&#1085;&#1072;&#1095;&#1077;&#1085;&#1080;&#1077;</text>
</g>

<g fill="#000000" fill-opacity="1" stroke="#000000" stroke-opacity="1" stroke-width="1" stroke-linecap="square" stroke-linejoin="bevel" transform="matrix(1,0,0,1,0,0)"
font-family="Tahoma" font-size="24" font-weight="400" font-style="normal" 
>
</g>

<g fill="none" stroke="#000000" stroke-opacity="1" stroke-width="2" stroke-linecap="square" stroke-linejoin="bevel" transform="matrix(1,0,0,1,0,0)"
font-family="Efofex" font-size="22" font-weight="400" font-style="normal" 
>
<polyline fill="none" vector-effect="none" points="679.578,95.5276 679.578,737.972 " />
</g>

<g fill="#000000" fill-opacity="1" stroke="#000000" stroke-opacity="1" stroke-width="1" stroke-linecap="square" stroke-linejoin="bevel" transform="matrix(1,0,0,1,0,0)"
font-family="Tahoma" font-size="24" font-weight="400" font-style="normal" 
>
</g>

<g fill="#000000" fill-opacity="1" stroke="#000000" stroke-opacity="1" stroke-width="1" stroke-linecap="square" stroke-linejoin="bevel" transform="matrix(3.38014e-10,1,-1,3.38014e-10,708,416)"
font-family="Tahoma" font-size="24" font-weight="400" font-style="normal" 
>
<text fill="#000000" fill-opacity="1" stroke="none" xml:space="preserve" x="-168.953" y="9.53125" font-family="Tahoma" font-size="24" font-weight="400" font-style="normal" 
 >&#1042;&#1077;&#1088;&#1093;&#1085;&#1077;&#1077; &#1087;&#1088;&#1077;&#1076;&#1077;&#1083;&#1100;&#1085;&#1086;&#1077; &#1079;&#1085;&#1072;&#1095;&#1077;&#1085;&#1080;&#1077;</text>
</g>

<g fill="#000000" fill-opacity="1" stroke="#000000" stroke-opacity="1" stroke-width="1" stroke-linecap="square" stroke-linejoin="bevel" transform="matrix(1,0,0,1,0,0)"
font-family="Tahoma" font-size="24" font-weight="400" font-style="normal" 
>
</g>

<g fill="none" stroke="#000000" stroke-opacity="1" stroke-width="2" stroke-linecap="square" stroke-linejoin="bevel" transform="matrix(1,0,0,1,0,0)"
font-family="Efofex" font-size="22" font-weight="400" font-style="normal" 
>
<polyline fill="none" vector-effect="none" points="317.991,610.923 680.995,610.923 " />
</g>

<g fill="#000000" fill-opacity="1" stroke="#000000" stroke-opacity="1" stroke-width="2" stroke-linecap="round" stroke-linejoin="bevel" transform="matrix(1,0,0,1,0,0)"
font-family="Efofex" font-size="22" font-weight="400" font-style="normal" 
>
<path vector-effect="none" fill-rule="evenodd" d="M337.991,601.923 L317.991,610.923 L337.991,619.923 L327.991,610.923 L337.991,601.923"/>
<path vector-effect="none" fill-rule="evenodd" d="M660.995,619.923 L680.995,610.923 L660.995,601.923 L670.995,610.923 L660.995,619.923"/>
</g>

<g fill="#000000" fill-opacity="1" stroke="#000000" stroke-opacity="1" stroke-width="1" stroke-linecap="square" stroke-linejoin="bevel" transform="matrix(1,0,0,1,0,0)"
font-family="Tahoma" font-size="32" font-weight="400" font-style="normal" 
>
</g>

<g fill="#000000" fill-opacity="1" stroke="#000000" stroke-opacity="1" stroke-width="1" stroke-linecap="square" stroke-linejoin="bevel" transform="matrix(1,0,0,1,499,591)"
font-family="Tahoma" font-size="32" font-weight="400" font-style="normal" 
>
<text fill="#000000" fill-opacity="1" stroke="none" xml:space="preserve" x="-51.9531" y="12.7031" font-family="Tahoma" font-size="32" font-weight="400" font-style="normal" 
 >&#1044;&#1086;&#1087;&#1091;&#1089;&#1082;</text>
</g>

<g fill="#000000" fill-opacity="1" stroke="#000000" stroke-opacity="1" stroke-width="1" stroke-linecap="square" stroke-linejoin="bevel" transform="matrix(1,0,0,1,0,0)"
font-family="Tahoma" font-size="32" font-weight="400" font-style="normal" 
>
</g>

<g fill="none" stroke="#000000" stroke-opacity="1" stroke-width="2" stroke-linecap="square" stroke-linejoin="bevel" transform="matrix(1,0,0,1,0,0)"
font-family="Efofex" font-size="22" font-weight="400" font-style="normal" 
>
<polyline fill="none" vector-effect="none" points="498.954,139.975 498.954,735.25 " />
</g>

<g fill="none" stroke="#000000" stroke-opacity="1" stroke-width="2" stroke-linecap="square" stroke-linejoin="bevel" transform="matrix(1,0,0,1,0,0)"
font-family="Efofex" font-size="22" font-weight="400" font-style="normal" 
>
<polyline fill="none" vector-effect="none" points="502.441,679.011 672.009,679.011 " />
</g>

<g fill="#000000" fill-opacity="1" stroke="#000000" stroke-opacity="1" stroke-width="2" stroke-linecap="round" stroke-linejoin="bevel" transform="matrix(1,0,0,1,0,0)"
font-family="Efofex" font-size="22" font-weight="400" font-style="normal" 
>
<path vector-effect="none" fill-rule="evenodd" d="M522.441,670.011 L502.441,679.011 L522.441,688.011 L512.441,679.011 L522.441,670.011"/>
<path vector-effect="none" fill-rule="evenodd" d="M652.009,688.011 L672.009,679.011 L652.009,670.011 L662.009,679.011 L652.009,688.011"/>
</g>

<g fill="#000000" fill-opacity="1" stroke="#000000" stroke-opacity="1" stroke-width="1" stroke-linecap="square" stroke-linejoin="bevel" transform="matrix(1,0,0,1,0,0)"
font-family="Tahoma" font-size="32" font-weight="400" font-style="normal" 
>
</g>

<g fill="#000000" fill-opacity="1" stroke="#000000" stroke-opacity="1" stroke-width="1" stroke-linecap="square" stroke-linejoin="bevel" transform="matrix(1,0,0,1,587,659)"
font-family="Tahoma" font-size="32" font-weight="400" font-style="normal" 
>
<text fill="#000000" fill-opacity="1" stroke="none" xml:space="preserve" x="-23.8906" y="12.7031" font-family="Tahoma" font-size="32" font-weight="400" font-style="normal" 
 >(+)</text>
</g>

<g fill="#000000" fill-opacity="1" stroke="#000000" stroke-opacity="1" stroke-width="1" stroke-linecap="square" stroke-linejoin="bevel" transform="matrix(1,0,0,1,0,0)"
font-family="Tahoma" font-size="32" font-weight="400" font-style="normal" 
>
</g>

<g fill="none" stroke="#000000" stroke-opacity="1" stroke-width="2" stroke-linecap="square" stroke-linejoin="bevel" transform="matrix(1,0,0,1,0,0)"
font-family="Efofex" font-size="22" font-weight="400" font-style="normal" 
>
<polyline fill="none" vector-effect="none" points="322.228,678.983 491.797,678.983 " />
</g>

<g fill="#000000" fill-opacity="1" stroke="#000000" stroke-opacity="1" stroke-width="2" stroke-linecap="round" stroke-linejoin="bevel" transform="matrix(1,0,0,1,0,0)"
font-family="Efofex" font-size="22" font-weight="400" font-style="normal" 
>
<path vector-effect="none" fill-rule="evenodd" d="M342.228,669.983 L322.228,678.983 L342.228,687.983 L332.228,678.983 L342.228,669.983"/>
<path vector-effect="none" fill-rule="evenodd" d="M471.797,687.983 L491.797,678.983 L471.797,669.983 L481.797,678.983 L471.797,687.983"/>
</g>

<g fill="#000000" fill-opacity="1" stroke="#000000" stroke-opacity="1" stroke-width="1" stroke-linecap="square" stroke-linejoin="bevel" transform="matrix(1,0,0,1,0,0)"
font-family="Tahoma" font-size="32" font-weight="400" font-style="normal" 
>
</g>

<g fill="#000000" fill-opacity="1" stroke="#000000" stroke-opacity="1" stroke-width="1" stroke-linecap="square" stroke-linejoin="bevel" transform="matrix(1,0,0,1,407,659)"
font-family="Tahoma" font-size="32" font-weight="400" font-style="normal" 
>
<text fill="#000000" fill-opacity="1" stroke="none" xml:space="preserve" x="-18.0625" y="12.7031" font-family="Tahoma" font-size="32" font-weight="400" font-style="normal" 
 >(-)</text>
</g>

<g fill="#000000" fill-opacity="1" stroke="#000000" stroke-opacity="1" stroke-width="1" stroke-linecap="square" stroke-linejoin="bevel" transform="matrix(1,0,0,1,0,0)"
font-family="Tahoma" font-size="32" font-weight="400" font-style="normal" 
>
</g>
</g>
</svg>
